<svg xmlns="http://www.w3.org/2000/svg" viewBox="0 0 219.31 76.07"><defs><style>.cls-1{fill:#1c1d1a;}</style></defs><title>wire-logo-svg</title><g id="Layer_2" data-name="Layer 2"><g id="Layer_1-2" data-name="Layer 1"><polygon class="cls-1" points="56.7 41.13 42.22 16.11 27.74 41.13 17.39 14.11 0 14.11 23.39 76.07 42.22 43.06 61.05 76.07 84.45 14.11 67.05 14.11 56.7 41.13"/><rect class="cls-1" x="90.63" y="14.11" width="15.52" height="59.68"/><path class="cls-1" d="M164.1,35a20.92,20.92,0,0,0-20.83-20.91H117V73.79h15.71V55.85h7l11.61,17.94h18.36L155,52.21A20.82,20.82,0,0,0,164.1,35Zm-20.83-6.34a6.34,6.34,0,0,1,0,12.67H131.91V28.68Z"/><polygon class="cls-1" points="190.19 59.61 190.19 50.54 216.69 50.54 216.69 37.37 190.19 37.37 190.19 28.29 218.4 28.29 218.4 14.11 176.01 14.11 176.01 73.79 219.31 73.79 219.31 59.61 190.19 59.61"/><polygon class="cls-1" points="3.26 10.07 5.26 10.07 5.26 2 8.18 2 8.18 0 0.34 0 0.34 2 3.26 2 3.26 10.07"/><polygon class="cls-1" points="11.3 6.07 15.37 6.07 15.37 10.07 17.37 10.07 17.37 0.07 15.37 0.07 15.37 4.07 11.3 4.07 11.3 0.07 9.3 0.07 9.3 10.07 11.3 10.07 11.3 6.07"/><polygon class="cls-1" points="21.34 10.08 26.34 10.08 26.34 8.08 22.34 8.08 22.34 6.09 26.34 6.09 26.34 4.09 22.34 4.09 22.34 2.09 26.34 2.09 26.34 0.09 22.34 0.09 22.34 0.07 20.34 0.07 20.34 10.07 21.34 10.07 21.34 10.08"/></g></g></svg>